# xmcd
#
# Track frame offsets: 
#        150
#        15104
#        31614
#        46150
#        60217
#        76813
#        92218
#        107479
#        132699
#        146596
#
# Disc length: 2147 seconds
#
# Revision: 0
# Processed by: cddbd v1.5.2PL0 Copyright (c) Steve Scherf et al.
# Submitted via: ExactAudioCopyFreeDBPlugin 1.0
#
DISCID=6c08610a
DTITLE=Big Al Blake - Blues According To Blake...A Road Less Traveled
DYEAR=2013
DGENRE=Blues
TTITLE0=Hummingbird
TTITLE1=Precious Time
TTITLE2=Papa's Boogie
TTITLE3=Old Time Boogie
TTITLE4=King Bee
TTITLE5=City Of Angels
TTITLE6=Rock Me
TTITLE7=Music Man
TTITLE8=Big Fat Mama
TTITLE9=Easy
EXTD=
EXTT0=
EXTT1=
EXTT2=
EXTT3=
EXTT4=
EXTT5=
EXTT6=
EXTT7=
EXTT8=
EXTT9=
PLAYORDER=
